<svg xmlns="http://www.w3.org/2000/svg" viewBox="0 0 128 128" style="enable-background:new 0 0 128 128" xml:space="preserve"><path style="fill:#191919" d="M122.784 39.995H81.761A29.862 29.862 0 0 1 93.786 64.01a29.838 29.838 0 0 1-6.585 18.751L61.32 127.974c41.463 1.074 58.295-31.41 58.295-31.41 14.19-26.973 6.567-49.174 3.169-56.569zM64.701.011C33.572 1.244 18.167 19.713 13.818 25.998l20.159 34.931c1.549-15.124 14.314-26.92 29.843-26.92 2.201 0 4.349.246 6.409.704h50.812C101.198-1.626 64.701.011 64.701.011zm-.881 93.983c-13.557 0-25.036-8.997-28.734-21.356L10.068 30.083c-21.339 35.213-1.761 65.865-1.761 65.865 16.303 25.828 39.403 30.283 47.484 31.04l20.67-35.794a29.787 29.787 0 0 1-12.641 2.8zm11.708-52.942c-.775-.387-1.567-.757-2.394-1.056-.264-.123-.546-.211-.828-.317-.475-.158-.951-.317-1.444-.458-.123-.035-.264-.07-.387-.106a24.585 24.585 0 0 0-3.046-.616 27.12 27.12 0 0 0-3.609-.247c-14.226 0-25.758 11.532-25.758 25.758 0 .317 0 .634.018.951.018.458.035.933.088 1.391.07.88.194 1.743.37 2.588.106.634.264 1.268.44 1.884 0 .07.035.141.053.194l.158.528C42.411 82.11 52.218 89.769 63.82 89.769a25.617 25.617 0 0 0 14.772-4.666 20.466 20.466 0 0 0 1.954-1.514c.493-.423.968-.88 1.426-1.338.194-.176.37-.37.546-.546.158-.158.299-.317.44-.475a24.37 24.37 0 0 0 1.232-1.479c3.363-4.366 5.37-9.807 5.37-15.74.001-10.019-5.704-18.681-14.032-22.959z"/></svg>